#!OML:ASF E:\Style4\Style4.ASF
:FULLY-SPECIFIED
:DEGREES
1728
root 0.67126 17.6134 -1.05022 10.604 10.8284 6.14933
lowerback 24.7042 2.42211 -1.35117
upperback 10.3607 2.89154 -0.207669
thorax -2.35098 1.44305 -0.204121
lowerneck -3.4152 -3.15279 -4.97669
upperneck -15.6149 -3.96691 2.5521
head -4.40908 -1.77702 1.83972
rclavicle -2.78299e-014 -1.11319e-014
rhumerus -44.1698 12.0494 -94.2005
rradius 77.4732
rwrist 7.57904
rhand -12.4619 -0.122326
rfingers 7.12502
rthumb 13.6119 -29.6573
lclavicle -2.78299e-014 -1.11319e-014
lhumerus -45.654 -15.7944 93.6943
lradius 83.0824
lwrist -1.71972
lhand 2.03399 35.496
lfingers 7.12502
lthumb 27.5371 63.502
rfemur -27.7311 3.49464 10.4802
rtibia 42.0322
rfoot -23.0083 -21.9834
rtoes -5.88876
lfemur -27.3124 -7.55711 -26.5306
ltibia 34.389
lfoot -15.4784 0.436334
ltoes -11.7845
1729
root 0.675748 17.6096 -1.02646 10.6205 10.8357 6.18823
lowerback 24.5221 2.48879 -1.33691
upperback 10.3495 2.9843 -0.186645
thorax -2.27679 1.48861 -0.20671
lowerneck -3.03275 -3.13779 -4.98368
upperneck -17.0973 -3.93254 2.71844
head -4.47596 -1.76032 1.77732
rclavicle 8.74653e-015 3.97569e-015
rhumerus -44.2164 11.9562 -94.1219
rradius 77.3653
rwrist 7.43769
rhand -12.7412 -0.029967
rfingers 7.12502
rthumb 13.3427 -29.5828
lclavicle 8.74653e-015 3.97569e-015
lhumerus -45.6169 -15.8795 93.8091
lradius 82.9898
lwrist -1.75154
lhand 1.88641 35.4325
lfingers 7.12502
lthumb 27.396 63.4609
rfemur -27.7396 3.50598 10.4466
rtibia 42.2215
rfoot -23.2125 -22.0056
rtoes -5.76025
lfemur -27.3011 -7.51388 -26.5869
ltibia 34.4815
lfoot -15.5698 0.268588
ltoes -10.9529
1730
root 0.675393 17.6035 -1.00196 10.5974 10.9423 6.23448
lowerback 24.9286 2.42562 -1.10244
upperback 10.0072 2.93198 -0.38421
thorax -2.82738 1.47208 -0.56488
lowerneck -2.82554 -3.09811 -4.81029
upperneck -17.7846 -3.85718 2.88212
head -4.72282 -1.73235 1.81268
rclavicle -3.97569e-015 2.38542e-014
rhumerus -44.6484 11.7041 -94.4947
rradius 77.2474
rwrist 7.44579
rhand -12.8026 -0.00019838
rfingers 7.12502
rthumb 13.2835 -29.5569
lclavicle -3.97569e-015 2.38542e-014
lhumerus -46.0186 -15.9378 93.6577
lradius 82.8586
lwrist -1.7736
lhand 1.70993 35.2406
lfingers 7.12502
lthumb 27.2271 63.2956
rfemur -27.6858 3.4747 10.4505
rtibia 42.4145
rfoot -23.4116 -22.118
rtoes -5.68913
lfemur -27.2294 -7.56496 -26.6131
ltibia 34.5692
lfoot -15.7057 0.0419759
ltoes -9.86966
1731
root 0.676155 17.5941 -0.981863 10.5752 11.0407 6.27173
lowerback 25.1115 2.36825 -0.958307
upperback 9.80161 2.87798 -0.515228
thorax -3.12819 1.45028 -0.786952
lowerneck -2.66392 -3.04812 -4.62487
upperneck -18.5378 -3.77258 2.96785
head -4.98655 -1.69654 1.82199
rclavicle -6.36111e-015 1.66979e-014
rhumerus -44.8664 11.5372 -94.7546
rradius 77.0751
rwrist 7.46265
rhand -12.7333 -0.0353386
rfingers 7.12502
rthumb 13.3503 -29.5877
lclavicle -6.36111e-015 1.66979e-014
lhumerus -46.214 -15.9646 93.5468
lradius 82.7304
lwrist -1.7661
lhand 1.51208 35.1906
lfingers 7.12502
lthumb 27.0379 63.2751
rfemur -27.652 3.4922 10.4435
rtibia 42.592
rfoot -23.6298 -22.1648
rtoes -5.3482
lfemur -27.194 -7.59424 -26.6433
ltibia 34.6723
lfoot -15.7439 -0.105618
ltoes -9.19433
1732
root 0.680091 17.5873 -0.962596 10.5549 11.0509 6.32605
lowerback 25.1167 2.36286 -0.964204
upperback 9.68913 2.86461 -0.571971
thorax -3.25169 1.44388 -0.844696
lowerneck -2.48994 -2.97305 -4.48439
upperneck -19.3219 -3.66094 2.99832
head -5.26523 -1.64183 1.82133
rclavicle 3.65764e-014 2.38542e-015
rhumerus -44.9773 11.4724 -94.8633
rradius 76.9696
rwrist 7.37921
rhand -12.6267 -0.101822
rfingers 7.12502
rthumb 13.453 -29.6474
lclavicle 3.65764e-014 2.38542e-015
lhumerus -46.3175 -15.9494 93.5315
lradius 82.6994
lwrist -1.76966
lhand 1.44061 35.2409
lfingers 7.12502
lthumb 26.9695 63.336
rfemur -27.6355 3.55638 10.3856
rtibia 42.7483
rfoot -23.7437 -22.2178
rtoes -5.36013
lfemur -27.1768 -7.57394 -26.7308
ltibia 34.8172
lfoot -15.7997 0.0127763
ltoes -10.2481
1733
root 0.685677 17.5825 -0.942524 10.5069 11.0868 6.36076
lowerback 25.0995 2.35418 -0.907585
upperback 9.59729 2.86346 -0.606211
thorax -3.34001 1.44449 -0.915481
lowerneck -2.28717 -2.9268 -4.46445
upperneck -20.0948 -3.58196 3.09266
head -5.54211 -1.5998 1.86199
rclavicle -6.36111e-015 -4.05521e-014
rhumerus -45.027 11.4224 -94.916
rradius 76.8052
rwrist 7.21632
rhand -12.8202 -0.058067
rfingers 7.12502
rthumb 13.2665 -29.6159
lclavicle -6.36111e-015 -4.05521e-014
lhumerus -46.3753 -15.9505 93.5515
lradius 82.6347
lwrist -1.84825
lhand 1.38495 35.1485
lfingers 7.12502
lthumb 26.9162 63.2519
rfemur -27.573 3.57782 10.3557
rtibia 42.8895
rfoot -23.891 -22.2713
rtoes -5.41357
lfemur -27.1375 -7.59993 -26.7985
ltibia 35.0079
lfoot -15.9477 0.121621
ltoes -11.2026
1734
root 0.692445 17.5752 -0.92046 10.468 11.1321 6.28608
lowerback 25.0025 2.34721 -0.730558
upperback 9.50013 2.89497 -0.60301
thorax -3.39183 1.4624 -1.01995
lowerneck -2.02369 -2.90053 -4.4484
upperneck -20.8702 -3.54706 3.10321
head -5.83252 -1.57415 1.87985
rclavicle -2.38542e-015 1.59028e-015
rhumerus -45.0382 11.3466 -94.9539
rradius 76.5488
rwrist 7.07543
rhand -13.0172 0.109077
rfingers 7.12502
rthumb 13.0766 -29.461
lclavicle -2.38542e-015 1.59028e-015
lhumerus -46.3748 -15.9275 93.5887
lradius 82.4483
lwrist -2.01771
lhand 1.42892 35.0656
lfingers 7.12502
lthumb 26.9583 63.1625
rfemur -27.5403 3.53961 10.4493
rtibia 43.0349
rfoot -23.9928 -22.2996
rtoes -5.47417
lfemur -27.1354 -7.68115 -26.7307
ltibia 35.2052
lfoot -16.1346 0.227793
ltoes -11.3783
1735
root 0.69875 17.5634 -0.896965 10.4441 11.1279 6.30338
lowerback 24.8615 2.38762 -0.682139
upperback 9.42382 2.9585 -0.599526
thorax -3.4046 1.49377 -1.05712
lowerneck -1.81861 -2.88666 -4.43019
upperneck -21.5574 -3.53534 3.06606
head -6.08762 -1.55733 1.88066
rclavicle -4.77083e-015 7.95139e-016
rhumerus -45.0342 11.2055 -94.92
rradius 76.358
rwrist 6.96835
rhand -12.8849 0.156299
rfingers 7.12502
rthumb 13.2041 -29.4055
lclavicle -4.77083e-015 7.95139e-016
lhumerus -46.279 -15.9257 93.6637
lradius 82.2117
lwrist -2.10152
lhand 1.58321 35.1399
lfingers 7.12502
lthumb 27.1059 63.2139
rfemur -27.5268 3.51363 10.438
rtibia 43.2012
rfoot -24.0595 -22.3134
rtoes -5.69439
lfemur -27.112 -7.68973 -26.7729
ltibia 35.3728
lfoot -16.3068 0.309716
ltoes -11.5865
1736
root 0.704116 17.5537 -0.873085 10.385 11.1316 6.39422
lowerback 24.7381 2.41846 -0.728247
upperback 9.3785 2.98845 -0.607438
thorax -3.3959 1.50768 -1.04357
lowerneck -1.68719 -2.86289 -4.41572
upperneck -22.1864 -3.50013 3.0656
head -6.3132 -1.53155 1.89047
rclavicle -4.37326e-014 5.56597e-015
rhumerus -44.9617 11.1141 -94.8682
rradius 76.1398
rwrist 6.88248
rhand -12.7552 0.0760265
rfingers 7.12502
rthumb 13.3291 -29.4777
lclavicle -4.37326e-014 5.56597e-015
lhumerus -46.1328 -15.8815 93.7341
lradius 81.9745
lwrist -2.09461
lhand 1.62548 35.2117
lfingers 7.12502
lthumb 27.1464 63.2793
rfemur -27.4538 3.51383 10.362
rtibia 43.3851
rfoot -24.0365 -22.4615
rtoes -6.10443
lfemur -26.9993 -7.70984 -26.8991
ltibia 35.504
lfoot -16.4315 0.370646
ltoes -11.7109
1737
root 0.706886 17.5486 -0.846363 10.3111 11.2552 6.5418
lowerback 24.6102 2.41148 -0.805617
upperback 9.32802 2.96333 -0.633952
thorax -3.39162 1.49488 -1.01757
lowerneck -1.50074 -2.83151 -4.3687
upperneck -22.7986 -3.44913 3.0976
head -6.54454 -1.50367 1.90528
rclavicle -1.43125e-014 0
rhumerus -44.889 10.9812 -94.8805
rradius 75.8493
rwrist 6.8368
rhand -12.8876 0.144224
rfingers 7.12502
rthumb 13.2015 -29.4178
lclavicle -1.43125e-014 0
lhumerus -46.0114 -15.8459 93.7427
lradius 81.7297
lwrist -2.0506
lhand 1.63808 35.212
lfingers 7.12502
lthumb 27.1584 63.2778
rfemur -27.284 3.45219 10.263
rtibia 43.5684
rfoot -24.107 -22.6519
rtoes -6.38139
lfemur -26.8077 -7.77504 -27.0588
ltibia 35.5885
lfoot -16.5333 0.255965
ltoes -11.5376
1738
root 0.709501 17.5425 -0.81581 10.2246 11.4849 6.64251
lowerback 24.4271 2.38012 -0.819751
upperback 9.27493 2.92493 -0.623782
thorax -3.36239 1.47634 -0.982197
lowerneck -1.19197 -2.80624 -4.27721
upperneck -23.4409 -3.42072 3.07424
head -6.80975 -1.48667 1.8987
rclavicle -7.39479e-014 1.82882e-014
rhumerus -44.8706 10.8268 -94.8701
rradius 75.5996
rwrist 6.76983
rhand -12.9404 0.149404
rfingers 7.12502
rthumb 13.1507 -29.4159
lclavicle -7.39479e-014 1.82882e-014
lhumerus -45.9448 -15.8664 93.7877
lradius 81.5036
lwrist -2.10985
lhand 1.70823 35.2345
lfingers 7.12502
lthumb 27.2255 63.2897
rfemur -27.055 3.31775 10.2448
rtibia 43.7492
rfoot -24.2869 -22.8204
rtoes -6.63191
lfemur -26.5934 -7.88539 -27.1497
ltibia 35.6377
lfoot -16.6527 0.0979893
ltoes -11.3017
1739
root 0.714768 17.5339 -0.7861 10.1582 11.5914 6.75198
lowerback 24.2318 2.37439 -0.875392
upperback 9.20569 2.90829 -0.626443
thorax -3.34557 1.46738 -0.942893
lowerneck -0.802786 -2.77665 -4.17948
upperneck -24.162 -3.39938 3.00175
head -7.11836 -1.46902 1.87846
rclavicle 2.46493e-014 -1.19271e-014
rhumerus -44.8404 10.7649 -94.8351
rradius 75.348
rwrist 6.68196
rhand -12.8718 0.101041
rfingers 7.12502
rthumb 13.2168 -29.46
lclavicle 2.46493e-014 -1.19271e-014
lhumerus -45.8863 -15.8115 93.8351
lradius 81.2682
lwrist -2.18458
lhand 1.77239 35.3103
lfingers 7.12502
lthumb 27.2869 63.356
rfemur -26.8799 3.29432 10.1718
rtibia 43.9129
rfoot -24.5328 -22.8956
rtoes -6.511
lfemur -26.4121 -7.92609 -27.2778
ltibia 35.6814
lfoot -16.7635 0.00439409
ltoes -10.9475
